<svg width="715.8px" height="138.8px" xmlns="http://www.w3.org/2000/svg" viewBox="-107.88749999999999 5.599999999999994 715.775 138.8" style="background: rgba(0, 0, 0, 0)" preserveAspectRatio="xMidYMid"><defs><linearGradient id="editing-gradient-gradient" x1="0" x2="1" y1="0.5" y2="0.5" gradientUnits="objectBoundingBox"><stop offset="0" stop-color="#ff00ff"></stop><stop offset="1" stop-color="#00ffff"></stop></linearGradient></defs><g><g transform="matrix(1.4,0,0,1.7,-102.3,219)"><path d="M -217.6 -61.8 L -241.9 -61.8 L -241.9 -72.3 L -238.7 -72.3 L -238.7 -101.1 L -241.9 -101.1 L -241.9 -111.6 L -217.6 -111.6 L -217.6 -101.1 L -220.8 -101.1 L -220.8 -72.3 L -217.6 -72.3 L -217.6 -61.8 Z M -153.4 -72.3 L -150.5 -72.3 L -150.5 -61.8 L -170.8 -61.8 L -170.8 -72.3 L -168.1 -72.3 L -168.1 -82.8 L -168.1 -82.8 Q -168.1 -84.9 -169 -85.9 L -169 -85.9 L -169 -85.9 Q -169.9 -86.9 -171.7 -86.9 L -171.7 -86.9 L -171.7 -86.9 Q -175.5 -86.9 -175.5 -82.8 L -175.5 -82.8 L -175.5 -72.3 L -172.8 -72.3 L -172.8 -61.8 L -192.9 -61.8 L -192.9 -72.3 L -190.2 -72.3 L -190.2 -82.8 L -190.2 -82.8 Q -190.2 -84.9 -191.1 -85.9 L -191.1 -85.9 L -191.1 -85.9 Q -192 -86.9 -193.8 -86.9 L -193.8 -86.9 L -193.8 -86.9 Q -197.6 -86.9 -197.6 -82.8 L -197.6 -82.8 L -197.6 -72.3 L -195 -72.3 L -195 -61.8 L -215.2 -61.8 L -215.2 -72.3 L -212.4 -72.3 L -212.4 -86.9 L -215.2 -86.9 L -215.2 -97.4 L -197.6 -97.4 L -197.6 -92.4 L -197.6 -92.4 Q -193 -98.3 -186.1 -98.3 L -186.1 -98.3 L -186.1 -98.3 Q -182.2 -98.3 -179.8 -96.5 L -179.8 -96.5 L -179.8 -96.5 Q -177.3 -94.6 -176.3 -91.3 L -176.3 -91.3 L -176.3 -91.3 Q -174 -94.6 -171 -96.4 L -171 -96.4 L -171 -96.4 Q -168 -98.2 -164 -98.2 L -164 -98.2 L -164 -98.2 Q -158.7 -98.2 -156 -94.9 L -156 -94.9 L -156 -94.9 Q -153.4 -91.6 -153.4 -85.8 L -153.4 -85.8 L -153.4 -72.3 Z M -114 -72.3 L -111.2 -72.3 L -111.2 -61.8 L -128.1 -61.8 L -128.1 -66.2 L -128.1 -66.2 Q -129.5 -64.1 -132 -62.5 L -132 -62.5 L -132 -62.5 Q -134.5 -60.9 -138.2 -60.9 L -138.2 -60.9 L -138.2 -60.9 Q -143 -60.9 -145.7 -63.5 L -145.7 -63.5 L -145.7 -63.5 Q -148.5 -66 -148.5 -70.7 L -148.5 -70.7 L -148.5 -70.7 Q -148.5 -82.8 -128 -83.1 L -128 -83.1 L -128 -83.1 Q -128.1 -85.3 -129.6 -86.1 L -129.6 -86.1 L -129.6 -86.1 Q -131.1 -86.9 -134.6 -86.9 L -134.6 -86.9 L -134.6 -86.9 Q -137.5 -86.9 -140.8 -86.3 L -140.8 -86.3 L -140.8 -86.3 Q -144.1 -85.7 -146.8 -84.7 L -146.8 -84.7 L -146.8 -96.4 L -146.8 -96.4 Q -143.4 -97.3 -139.5 -97.8 L -139.5 -97.8 L -139.5 -97.8 Q -135.5 -98.3 -131.7 -98.3 L -131.7 -98.3 L -131.7 -98.3 Q -122.2 -98.3 -118.1 -94.8 L -118.1 -94.8 L -118.1 -94.8 Q -114 -91.4 -114 -84.2 L -114 -84.2 L -114 -72.3 Z M -128.1 -76.4 L -128.1 -76.8 L -128.1 -76.8 Q -131 -76.8 -132.5 -76 L -132.5 -76 L -132.5 -76 Q -134.1 -75.3 -134.1 -73.5 L -134.1 -73.5 L -134.1 -73.5 Q -134.1 -72.4 -133.4 -71.7 L -133.4 -71.7 L -133.4 -71.7 Q -132.8 -71 -131.5 -71 L -131.5 -71 L -131.5 -71 Q -129.9 -71 -129 -72.4 L -129 -72.4 L -129 -72.4 Q -128.1 -73.8 -128.1 -76.4 L -128.1 -76.4 Z M -90.4 -46.7 L -90.4 -46.7 Q -95 -46.7 -99.2 -47.4 L -99.2 -47.4 L -99.2 -47.4 Q -103.4 -48 -105.7 -48.8 L -105.7 -48.8 L -105.7 -59.3 L -105.7 -59.3 Q -98.9 -58.1 -93.5 -58.1 L -93.5 -58.1 L -93.5 -58.1 Q -89.9 -58.1 -88.2 -59.2 L -88.2 -59.2 L -88.2 -59.2 Q -86.6 -60.3 -86.6 -63.4 L -86.6 -63.4 L -86.6 -66.2 L -86.6 -66.2 Q -88.2 -64.1 -90.7 -62.5 L -90.7 -62.5 L -90.7 -62.5 Q -93.3 -60.9 -96.5 -60.9 L -96.5 -60.9 L -96.5 -60.9 Q -103.1 -60.9 -106.4 -65.8 L -106.4 -65.8 L -106.4 -65.8 Q -109.6 -70.6 -109.6 -79.6 L -109.6 -79.6 L -109.6 -79.6 Q -109.6 -88.6 -106.4 -93.4 L -106.4 -93.4 L -106.4 -93.4 Q -103.1 -98.3 -96.5 -98.3 L -96.5 -98.3 L -96.5 -98.3 Q -93.3 -98.3 -90.7 -96.7 L -90.7 -96.7 L -90.7 -96.7 Q -88.2 -95.1 -86.6 -93 L -86.6 -93 L -86.6 -97.4 L -69.1 -97.4 L -69.1 -86.9 L -71.9 -86.9 L -71.9 -64.4 L -71.9 -64.4 Q -71.9 -55.1 -76.5 -50.9 L -76.5 -50.9 L -76.5 -50.9 Q -81.1 -46.7 -90.4 -46.7 L -90.4 -46.7 Z M -90.3 -72.3 L -90.3 -72.3 Q -88.5 -72.3 -87.5 -73.3 L -87.5 -73.3 L -87.5 -73.3 Q -86.6 -74.3 -86.6 -76.4 L -86.6 -76.4 L -86.6 -82.8 L -86.6 -82.8 Q -86.6 -84.9 -87.5 -85.9 L -87.5 -85.9 L -87.5 -85.9 Q -88.5 -86.9 -90.3 -86.9 L -90.3 -86.9 L -90.3 -86.9 Q -92.2 -86.9 -93.1 -85.9 L -93.1 -85.9 L -93.1 -85.9 Q -94 -84.9 -94 -82.8 L -94 -82.8 L -94 -76.4 L -94 -76.4 Q -94 -74.3 -93.1 -73.3 L -93.1 -73.3 L -93.1 -73.3 Q -92.2 -72.3 -90.3 -72.3 L -90.3 -72.3 Z M -48.2 -60.9 L -48.2 -60.9 Q -57.3 -60.9 -62.4 -65.7 L -62.4 -65.7 L -62.4 -65.7 Q -67.5 -70.5 -67.5 -79.6 L -67.5 -79.6 L -67.5 -79.6 Q -67.5 -88.8 -62.4 -93.5 L -62.4 -93.5 L -62.4 -93.5 Q -57.3 -98.3 -48.2 -98.3 L -48.2 -98.3 L -48.2 -98.3 Q -39.2 -98.3 -35.2 -93.6 L -35.2 -93.6 L -35.2 -93.6 Q -31.2 -88.9 -31.2 -81.9 L -31.2 -81.9 L -31.2 -77.3 L -51.9 -77.3 L -51.9 -76.9 L -51.9 -76.9 Q -51.9 -74.6 -50.5 -73.4 L -50.5 -73.4 L -50.5 -73.4 Q -49.1 -72.3 -45.8 -72.3 L -45.8 -72.3 L -45.8 -72.3 Q -41.9 -72.3 -38.4 -72.9 L -38.4 -72.9 L -38.4 -72.9 Q -34.9 -73.5 -32.3 -74.4 L -32.3 -74.4 L -32.3 -64.1 L -32.3 -64.1 Q -34.5 -62.9 -38.8 -61.9 L -38.8 -61.9 L -38.8 -61.9 Q -43.2 -60.9 -48.2 -60.9 L -48.2 -60.9 Z M -51.9 -84.3 L -44.5 -84.3 L -44.5 -85.1 L -44.5 -85.1 Q -44.5 -87.3 -45.4 -88.2 L -45.4 -88.2 L -45.4 -88.2 Q -46.4 -89.2 -48.2 -89.2 L -48.2 -89.2 L -48.2 -89.2 Q -50.1 -89.2 -51 -88.2 L -51 -88.2 L -51 -88.2 Q -51.9 -87.2 -51.9 -85.1 L -51.9 -85.1 L -51.9 -84.3 Z M -13.7 -60.9 L -13.7 -60.9 Q -21.8 -60.9 -29.3 -63.5 L -29.3 -63.5 L -29.3 -73 L -18.9 -73 L -18.9 -72.3 L -18.9 -72.3 Q -18.9 -69.2 -15 -69.2 L -15 -69.2 L -15 -69.2 Q -11.5 -69.2 -11.5 -71.6 L -11.5 -71.6 L -11.5 -71.6 Q -11.5 -72.9 -12.5 -73.5 L -12.5 -73.5 L -12.5 -73.5 Q -13.5 -74.2 -16 -74.6 L -16 -74.6 L -19.2 -75.2 L -19.2 -75.2 Q -29.3 -77 -29.3 -86.6 L -29.3 -86.6 L -29.3 -86.6 Q -29.3 -92.2 -25 -95.2 L -25 -95.2 L -25 -95.2 Q -20.8 -98.3 -13.6 -98.3 L -13.6 -98.3 L -13.6 -98.3 Q -5.6 -98.3 -0.1 -95.6 L -0.1 -95.6 L -0.1 -86.7 L -9.9 -86.7 L -9.9 -87.4 L -9.9 -87.4 Q -9.9 -88.6 -10.7 -89.3 L -10.7 -89.3 L -10.7 -89.3 Q -11.6 -90 -13.3 -90 L -13.3 -90 L -13.3 -90 Q -16.5 -90 -16.5 -87.9 L -16.5 -87.9 L -16.5 -87.9 Q -16.5 -86.8 -15.6 -86.3 L -15.6 -86.3 L -15.6 -86.3 Q -14.7 -85.7 -12.3 -85.2 L -12.3 -85.2 L -8.7 -84.5 L -8.7 -84.5 Q -3 -83.4 -0.5 -80.4 L -0.5 -80.4 L -0.5 -80.4 Q 1.9 -77.5 1.9 -72.9 L 1.9 -72.9 L 1.9 -72.9 Q 1.9 -67.1 -2.2 -64 L -2.2 -64 L -2.2 -64 Q -6.2 -60.9 -13.7 -60.9 L -13.7 -60.9 Z M 71.5 -87.4 L 71.5 -77.8 L 68.3 -77.8 L 68.3 -65 L 68.3 -65 Q 65.5 -63.4 60.1 -62.2 L 60.1 -62.2 L 60.1 -62.2 Q 54.7 -60.9 48.4 -60.9 L 48.4 -60.9 L 48.4 -60.9 Q 36.5 -60.9 29.7 -67.2 L 29.7 -67.2 L 29.7 -67.2 Q 22.9 -73.5 22.9 -86.7 L 22.9 -86.7 L 22.9 -86.7 Q 22.9 -100.2 29.6 -106.4 L 29.6 -106.4 L 29.6 -106.4 Q 36.4 -112.5 48.9 -112.5 L 48.9 -112.5 L 48.9 -112.5 Q 55 -112.5 60.3 -111.2 L 60.3 -111.2 L 60.3 -111.2 Q 65.6 -109.9 68.3 -108.3 L 68.3 -108.3 L 68.3 -93 L 52.3 -93 L 52.3 -96.1 L 52.3 -96.1 Q 52.3 -98.7 51.2 -99.9 L 51.2 -99.9 L 51.2 -99.9 Q 50.1 -101.1 47.7 -101.1 L 47.7 -101.1 L 47.7 -101.1 Q 45.2 -101.1 44.1 -99.9 L 44.1 -99.9 L 44.1 -99.9 Q 43 -98.7 43 -96.1 L 43 -96.1 L 43 -77.4 L 43 -77.4 Q 43 -74.7 44.1 -73.5 L 44.1 -73.5 L 44.1 -73.5 Q 45.2 -72.3 47.7 -72.3 L 47.7 -72.3 L 47.7 -72.3 Q 50.1 -72.3 51.2 -73.5 L 51.2 -73.5 L 51.2 -73.5 Q 52.3 -74.7 52.3 -77.4 L 52.3 -77.4 L 52.3 -77.8 L 48.9 -77.8 L 48.9 -87.4 L 71.5 -87.4 Z M 107.7 -72.3 L 110.5 -72.3 L 110.5 -61.8 L 93.6 -61.8 L 93.6 -66.2 L 93.6 -66.2 Q 92.2 -64.1 89.7 -62.5 L 89.7 -62.5 L 89.7 -62.5 Q 87.2 -60.9 83.5 -60.9 L 83.5 -60.9 L 83.5 -60.9 Q 78.7 -60.9 76 -63.5 L 76 -63.5 L 76 -63.5 Q 73.2 -66 73.2 -70.7 L 73.2 -70.7 L 73.2 -70.7 Q 73.2 -82.8 93.7 -83.1 L 93.7 -83.1 L 93.7 -83.1 Q 93.6 -85.3 92.1 -86.1 L 92.1 -86.1 L 92.1 -86.1 Q 90.6 -86.9 87.1 -86.9 L 87.1 -86.9 L 87.1 -86.9 Q 84.2 -86.9 80.9 -86.3 L 80.9 -86.3 L 80.9 -86.3 Q 77.6 -85.7 74.9 -84.7 L 74.9 -84.7 L 74.9 -96.4 L 74.9 -96.4 Q 78.3 -97.3 82.2 -97.8 L 82.2 -97.8 L 82.2 -97.8 Q 86.2 -98.3 90 -98.3 L 90 -98.3 L 90 -98.3 Q 99.5 -98.3 103.6 -94.8 L 103.6 -94.8 L 103.6 -94.8 Q 107.7 -91.4 107.7 -84.2 L 107.7 -84.2 L 107.7 -72.3 Z M 93.6 -76.4 L 93.6 -76.8 L 93.6 -76.8 Q 90.7 -76.8 89.2 -76 L 89.2 -76 L 89.2 -76 Q 87.6 -75.3 87.6 -73.5 L 87.6 -73.5 L 87.6 -73.5 Q 87.6 -72.4 88.3 -71.7 L 88.3 -71.7 L 88.3 -71.7 Q 88.9 -71 90.2 -71 L 90.2 -71 L 90.2 -71 Q 91.8 -71 92.7 -72.4 L 92.7 -72.4 L 92.7 -72.4 Q 93.6 -73.8 93.6 -76.4 L 93.6 -76.4 Z M 132.9 -61.8 L 112.6 -61.8 L 112.6 -72.3 L 115.4 -72.3 L 115.4 -101.1 L 112.6 -101.1 L 112.6 -111.6 L 130.1 -111.6 L 130.1 -72.3 L 132.9 -72.3 L 132.9 -61.8 Z M 155.3 -61.8 L 135 -61.8 L 135 -72.3 L 137.8 -72.3 L 137.8 -101.1 L 135 -101.1 L 135 -111.6 L 152.5 -111.6 L 152.5 -72.3 L 155.3 -72.3 L 155.3 -61.8 Z M 176.4 -60.9 L 176.4 -60.9 Q 167.3 -60.9 162.2 -65.7 L 162.2 -65.7 L 162.2 -65.7 Q 157.1 -70.5 157.1 -79.6 L 157.1 -79.6 L 157.1 -79.6 Q 157.1 -88.8 162.2 -93.5 L 162.2 -93.5 L 162.2 -93.5 Q 167.3 -98.3 176.4 -98.3 L 176.4 -98.3 L 176.4 -98.3 Q 185.5 -98.3 189.5 -93.6 L 189.5 -93.6 L 189.5 -93.6 Q 193.5 -88.9 193.5 -81.9 L 193.5 -81.9 L 193.5 -77.3 L 172.7 -77.3 L 172.7 -76.9 L 172.7 -76.9 Q 172.7 -74.6 174.1 -73.4 L 174.1 -73.4 L 174.1 -73.4 Q 175.5 -72.3 178.8 -72.3 L 178.8 -72.3 L 178.8 -72.3 Q 182.7 -72.3 186.2 -72.9 L 186.2 -72.9 L 186.2 -72.9 Q 189.7 -73.5 192.4 -74.4 L 192.4 -74.4 L 192.4 -64.1 L 192.4 -64.1 Q 190.1 -62.9 185.8 -61.9 L 185.8 -61.9 L 185.8 -61.9 Q 181.5 -60.9 176.4 -60.9 L 176.4 -60.9 Z M 172.7 -84.3 L 180.1 -84.3 L 180.1 -85.1 L 180.1 -85.1 Q 180.1 -87.3 179.2 -88.2 L 179.2 -88.2 L 179.2 -88.2 Q 178.3 -89.2 176.4 -89.2 L 176.4 -89.2 L 176.4 -89.2 Q 174.6 -89.2 173.6 -88.2 L 173.6 -88.2 L 173.6 -88.2 Q 172.7 -87.2 172.7 -85.1 L 172.7 -85.1 L 172.7 -84.3 Z M 222.7 -98.3 L 222.7 -98.3 Q 224 -98.3 225.1 -98 L 225.1 -98 L 225.1 -98 Q 226.3 -97.8 227.1 -97.4 L 227.1 -97.4 L 227.1 -85.2 L 227.1 -85.2 Q 224.4 -86.3 221.4 -86.3 L 221.4 -86.3 L 221.4 -86.3 Q 217.4 -86.3 215.2 -84.2 L 215.2 -84.2 L 215.2 -84.2 Q 213 -82 213 -77.9 L 213 -77.9 L 213 -72.3 L 218.8 -72.3 L 218.8 -61.8 L 195.5 -61.8 L 195.5 -72.3 L 198.3 -72.3 L 198.3 -86.9 L 195.5 -86.9 L 195.5 -97.4 L 213 -97.4 L 213 -92.7 L 213 -92.7 Q 214.8 -95.4 217.1 -96.9 L 217.1 -96.9 L 217.1 -96.9 Q 219.4 -98.3 222.7 -98.3 L 222.7 -98.3 Z M 249.8 -97.4 L 267.6 -97.4 L 267.6 -86.9 L 265.2 -86.9 L 256.8 -64.7 L 256.8 -64.7 Q 253.7 -56.3 249.6 -52.1 L 249.6 -52.1 L 249.6 -52.1 Q 245.6 -47.9 239 -47.9 L 239 -47.9 L 239 -47.9 Q 236.3 -47.9 233.6 -48.5 L 233.6 -48.5 L 233.6 -48.5 Q 230.8 -49 228.6 -50 L 228.6 -50 L 228.6 -61.6 L 237.4 -61.6 L 237.4 -60.9 L 237.4 -60.9 Q 237.4 -59.3 239.1 -59.3 L 239.1 -59.3 L 239.1 -59.3 Q 240.6 -59.3 241.3 -60.7 L 241.3 -60.7 L 231.2 -86.9 L 228.8 -86.9 L 228.8 -97.4 L 247.8 -97.4 L 247.8 -86.9 L 245.6 -86.9 L 248.9 -76.9 L 252 -86.9 L 249.8 -86.9 L 249.8 -97.4 Z" fill="url(#editing-gradient-gradient)"></path></g></g><style>text {
  font-size: 64px;
  font-family: Arial Black;
  dominant-baseline: central;
  text-anchor: middle;
}</style></svg>